<?xml version="1.0" encoding="utf-8"?>
<!-- Generator: Adobe Illustrator 25.4.1, SVG Export Plug-In . SVG Version: 6.00 Build 0)  -->
<svg version="1.1" id="katman_1" xmlns="http://www.w3.org/2000/svg" xmlns:xlink="http://www.w3.org/1999/xlink" x="0px" y="0px"
	 viewBox="0 0 12 12" style="enable-background:new 0 0 12 12;" xml:space="preserve">
<path id="Path_1" d="M8.6,7.6H8L7.8,7.4c1.6-1.9,1.4-4.7-0.5-6.3S2.7-0.3,1.1,1.6s-1.4,4.7,0.5,6.3c1.7,1.4,4.1,1.4,5.8,0L7.6,8v0.5
	L11,12l1-1L8.6,7.6z M4.5,7.6c-1.7,0-3.1-1.4-3.1-3.1c0-1.7,1.4-3.1,3.1-3.1c1.7,0,3.1,1.4,3.1,3.1c0,0.8-0.3,1.6-0.9,2.2
	C6.1,7.2,5.3,7.6,4.5,7.6z"/>
</svg>
